Fly_normalized_Motion_pl14
version=1
nRows=12
nColumns=43
inDegrees=yes
endheader
time		pelvis_tilt		pelvis_list		pelvis_rotation		pelvis_tx		pelvis_ty		pelvis_tz		hip_flexion_r		hip_adduction_r		hip_rotation_r		knee_angle_r		ankle_angle_r		subtalar_angle_r		mtp_angle_r		hip_flexion_l		hip_adduction_l		hip_rotation_l		knee_angle_l		ankle_angle_l		subtalar_angle_l		mtp_angle_l		lumbar_extension		lumbar_bending		lumbar_rotation		neck_flexion		neck_lateral_bending		neck_rotation		arm_flex_r		arm_add_r		arm_rot_r		elbow_flex_r		pro_sup_r		wrist_flex_r		wrist_dev_r		hand_finger_flex_r		arm_flex_l		arm_add_l		arm_rot_l		elbow_flex_l		pro_sup_l		wrist_flex_l		wrist_dev_l		hand_finger_flex_l		
0.435000		2.151651		-22.997760		85.978077		0.035054		1.915825		1.481144		52.378766		4.722157		1.179087		-101.228196		-6.809355		-10.363381		23.856241		60.617061		-11.545421		-3.734648		-99.412162		-8.657107		-9.239037		25.798439		-32.397025		-0.250828		0.722502		22.121930		-1.701034		4.995021		112.776045		-8.242909		16.989971		71.619368		109.069391		-1.496909		2.548345		24.163804		115.728819		-21.636393		26.673746		74.230700		88.929966		-9.587537		0.235995		26.394039		
0.439369		2.122264		-22.852319		86.059094		0.034540		1.916508		1.474358		52.562911		4.696548		1.050798		-100.905007		-6.906274		-11.182759		23.415807		60.813280		-11.365067		-3.675506		-98.543560		-8.484756		-9.264034		25.768175		-32.585081		-0.243996		0.479054		22.231797		-1.666144		5.077671		112.327218		-7.877217		16.836253		71.283531		109.119905		-1.581118		2.600721		24.074986		115.238256		-21.481978		26.285276		74.002173		89.138422		-9.677869		0.506126		26.263592		
0.443737		2.083041		-22.732045		86.127091		0.034018		1.917000		1.467632		52.837618		4.661887		0.935474		-100.597925		-7.073934		-12.202374		22.898628		61.083814		-11.150007		-3.575761		-97.676038		-8.425328		-9.086021		25.735358		-32.757913		-0.248565		0.254432		22.336471		-1.631195		5.143212		111.800851		-7.530802		16.672191		70.944234		109.127748		-1.567455		2.677743		24.026902		114.661582		-21.302056		25.848504		73.789805		89.416116		-9.746562		0.802495		26.153366		
0.448106		2.114930		-22.742495		86.278228		0.033527		1.917124		1.461080		53.315362		4.664260		0.635810		-100.279332		-7.769600		-14.253255		21.540858		61.590722		-10.899276		-3.279206		-96.811776		-8.402493		-8.475708		25.653637		-32.785605		-0.164466		0.031190		22.282106		-1.625394		5.238502		111.127353		-7.198062		16.389485		70.664729		109.172723		-1.195625		2.787617		24.044955		113.856670		-20.996375		25.018421		73.698042		90.355757		-9.563502		1.476377		26.037682		
0.452475		2.148952		-22.547626		86.215315		0.033222		1.917280		1.454489		53.601608		4.762742		0.621632		-100.045713		-7.683281		-14.364421		21.490132		61.837744		-10.845979		-3.174877		-95.963307		-8.378586		-8.418661		25.649489		-33.072411		-0.203602		0.024160		22.495850		-1.580003		5.223259		110.608553		-7.121263		16.543132		70.287865		109.179743		-1.135985		2.866281		24.049510		113.453481		-21.006465		25.048891		73.343625		90.396829		-9.572900		1.555612		26.024506		
0.456843		2.269315		-22.639731		86.360889		0.032804		1.916809		1.448255		54.234404		4.863677		0.241299		-99.750264		-8.136321		-16.324411		19.911966		62.525918		-10.690909		-2.763732		-95.175007		-8.265473		-7.283506		25.596506		-33.040966		-0.075311		-0.082796		22.533013		-1.492167		5.235495		109.850024		-6.742865		16.086278		69.797117		109.053125		-0.443200		2.921565		24.096475		112.464763		-20.461811		23.901497		73.107126		91.617800		-9.294301		2.074290		26.010841		
0.461212		2.211087		-22.480392		86.336443		0.032480		1.916787		1.441678		54.539845		4.903782		0.196629		-99.424721		-7.829488		-16.968924		19.645505		62.805651		-10.532325		-2.646740		-94.232023		-8.473328		-6.733374		25.592235		-33.323278		-0.164756		-0.208942		22.755148		-1.397472		5.282666		109.065512		-6.449555		15.889876		69.373311		108.896588		-0.386816		2.936066		24.058583		111.687028		-20.260643		23.447916		72.843026		91.684089		-9.462699		2.106414		25.938309		
0.465581		2.149599		-22.387020		86.362006		0.032038		1.916457		1.435333		55.009495		4.883361		0.035554		-99.098455		-7.985950		-18.263823		19.106254		63.189092		-10.329007		-2.455249		-93.309209		-8.516777		-5.608628		25.617326		-33.517519		-0.238121		-0.386626		22.761522		-1.286599		5.337656		108.183854		-6.205004		15.648184		68.893794		108.682514		-0.149064		2.956229		24.037000		110.823294		-20.023132		22.923057		72.596105		91.947897		-9.696112		2.313200		25.859021		
0.469949		2.214857		-22.253397		86.376766		0.031779		1.915895		1.428904		55.476097		5.006631		-0.134285		-98.754776		-8.303039		-19.127106		18.629627		63.551608		-10.280186		-2.238242		-92.461968		-8.308494		-4.887083		25.650794		-33.759519		-0.236424		-0.390501		22.892995		-1.224714		5.341610		107.339229		-6.198440		15.735963		68.453331		108.657811		0.097118		3.043356		24.002283		110.119667		-19.981079		22.863189		72.256151		92.278848		-9.729171		2.580065		25.850971		
0.474318		2.209027		-22.054958		86.340115		0.031519		1.915385		1.422501		55.874562		5.076548		-0.258537		-98.354946		-8.203985		-19.969732		18.339415		63.808728		-10.206937		-2.091383		-91.535120		-8.380954		-4.167344		25.682950		-34.092633		-0.319195		-0.443425		23.050433		-1.101173		5.323806		106.415221		-6.089388		15.723903		67.935201		108.686230		0.070221		3.217440		23.873309		109.278217		-19.828328		22.567685		71.902957		92.372628		-9.913133		2.712907		25.803713		
0.478687		2.281049		-21.965904		86.352410		0.031405		1.914514		1.416141		56.457469		5.227208		-0.507796		-97.875038		-8.911168		-21.566805		17.430376		64.194888		-10.190417		-1.802963		-90.632986		-7.999794		-2.638584		25.815199		-34.282805		-0.347130		-0.388994		23.057373		-1.010651		5.277468		105.333106		-6.163856		15.814737		67.611689		108.996691		-0.007524		3.645302		23.481676		108.337448		-19.539883		22.227011		71.517209		92.892263		-10.079707		3.108665		25.813832		
0.483056		2.256238		-21.748744		86.263602		0.031266		1.913750		1.409627		56.862455		5.307144		-0.595659		-97.380390		-8.622381		-22.096568		17.192884		64.369922		-10.174601		-1.735570		-89.630868		-8.137118		-2.088274		25.857112		-34.633162		-0.485975		-0.430240		23.147989		-0.847192		5.271128		104.255286		-6.132634		15.910785		67.119057		109.104200		-0.087841		3.898516		23.325653		107.388344		-19.457985		22.004014		71.207447		92.945913		-10.213117		3.197274		25.806712		
